<svg width="180" height="53" viewBox="0 0 180 53" fill="none" xmlns="http://www.w3.org/2000/svg">
<path d="M75.7601 15.4405V33.5155H72.7976V21.8405C72.7976 21.3738 72.8226 20.8697 72.8726 20.328L67.4101 30.5905C67.1518 31.0822 66.756 31.328 66.2226 31.328H65.7476C65.2143 31.328 64.8185 31.0822 64.5601 30.5905L59.0351 20.2905C59.0601 20.5655 59.081 20.8363 59.0976 21.103C59.1143 21.3697 59.1226 21.6155 59.1226 21.8405V33.5155H56.1601V15.4405H58.6976C58.8476 15.4405 58.9768 15.4447 59.0851 15.453C59.1935 15.4613 59.2893 15.4822 59.3726 15.5155C59.4643 15.5488 59.5435 15.603 59.6101 15.678C59.6851 15.753 59.756 15.853 59.8226 15.978L65.2351 26.0155C65.3768 26.2822 65.506 26.5572 65.6226 26.8405C65.7476 27.1238 65.8685 27.4155 65.9851 27.7155C66.1018 27.4072 66.2226 27.1113 66.3476 26.828C66.4726 26.5363 66.606 26.2572 66.7476 25.9905L72.0851 15.978C72.1518 15.853 72.2226 15.753 72.2976 15.678C72.3726 15.603 72.4518 15.5488 72.5351 15.5155C72.6268 15.4822 72.7268 15.4613 72.8351 15.453C72.9435 15.4447 73.0726 15.4405 73.2226 15.4405H75.7601ZM87.1773 25.628C87.1773 25.228 87.119 24.853 87.0023 24.503C86.894 24.1447 86.7273 23.8322 86.5023 23.5655C86.2773 23.2988 85.9898 23.0905 85.6398 22.9405C85.2982 22.7822 84.8982 22.703 84.4398 22.703C83.5482 22.703 82.844 22.9572 82.3273 23.4655C81.819 23.9738 81.494 24.6947 81.3523 25.628H87.1773ZM81.2898 27.4905C81.3398 28.1488 81.4565 28.7197 81.6398 29.203C81.8232 29.678 82.0648 30.0738 82.3648 30.3905C82.6648 30.6988 83.019 30.9322 83.4273 31.0905C83.844 31.2405 84.3023 31.3155 84.8023 31.3155C85.3023 31.3155 85.7315 31.2572 86.0898 31.1405C86.4565 31.0238 86.7732 30.8947 87.0398 30.753C87.3148 30.6113 87.5523 30.4822 87.7523 30.3655C87.9607 30.2488 88.1607 30.1905 88.3523 30.1905C88.6107 30.1905 88.8023 30.2863 88.9273 30.478L89.8148 31.603C89.4732 32.003 89.0898 32.3405 88.6648 32.6155C88.2398 32.8822 87.794 33.0988 87.3273 33.2655C86.869 33.4238 86.3982 33.5363 85.9148 33.603C85.4398 33.6697 84.9773 33.703 84.5273 33.703C83.6357 33.703 82.8065 33.5572 82.0398 33.2655C81.2732 32.9655 80.6065 32.528 80.0398 31.953C79.4732 31.3697 79.0273 30.653 78.7023 29.803C78.3773 28.9447 78.2148 27.953 78.2148 26.828C78.2148 25.953 78.3565 25.1322 78.6398 24.3655C78.9232 23.5905 79.3273 22.9197 79.8523 22.353C80.3857 21.778 81.0315 21.3238 81.7898 20.9905C82.5565 20.6572 83.419 20.4905 84.3773 20.4905C85.1857 20.4905 85.9315 20.6197 86.6148 20.878C87.2982 21.1363 87.8857 21.5155 88.3773 22.0155C88.869 22.5072 89.2523 23.1155 89.5273 23.8405C89.8107 24.5572 89.9523 25.378 89.9523 26.303C89.9523 26.7697 89.9023 27.0863 89.8023 27.253C89.7023 27.4113 89.5107 27.4905 89.2273 27.4905H81.2898ZM100.319 23.9655C99.9693 23.5405 99.586 23.2405 99.1693 23.0655C98.761 22.8905 98.3193 22.803 97.8443 22.803C97.3777 22.803 96.9568 22.8905 96.5818 23.0655C96.2068 23.2405 95.886 23.5072 95.6193 23.8655C95.3527 24.2155 95.1485 24.6655 95.0068 25.2155C94.8652 25.7572 94.7943 26.3988 94.7943 27.1405C94.7943 27.8905 94.8527 28.528 94.9693 29.053C95.0943 29.5697 95.2693 29.9947 95.4943 30.328C95.7193 30.653 95.9943 30.8905 96.3193 31.0405C96.6443 31.1822 97.0068 31.253 97.4068 31.253C98.0485 31.253 98.5943 31.1197 99.0443 30.853C99.4943 30.5863 99.9193 30.2072 100.319 29.7155V23.9655ZM103.407 14.9405V33.5155H101.519C101.111 33.5155 100.853 33.328 100.744 32.953L100.482 31.7155C99.9652 32.3072 99.3693 32.7863 98.6943 33.153C98.0277 33.5197 97.2485 33.703 96.3568 33.703C95.6568 33.703 95.0152 33.5572 94.4318 33.2655C93.8485 32.9738 93.3443 32.553 92.9193 32.003C92.5027 31.4447 92.1777 30.7572 91.9443 29.9405C91.7193 29.1238 91.6068 28.1905 91.6068 27.1405C91.6068 26.1905 91.736 25.3072 91.9943 24.4905C92.2527 23.6738 92.6235 22.9655 93.1068 22.3655C93.5902 21.7655 94.1693 21.2988 94.8443 20.9655C95.5193 20.6238 96.2777 20.453 97.1193 20.453C97.836 20.453 98.4485 20.5655 98.9568 20.7905C99.4652 21.0155 99.9193 21.3197 100.319 21.703V14.9405H103.407ZM109.654 20.6905V33.5155H106.554V20.6905H109.654ZM110.079 16.953C110.079 17.2197 110.025 17.4697 109.916 17.703C109.808 17.9363 109.662 18.1405 109.479 18.3155C109.304 18.4905 109.096 18.6322 108.854 18.7405C108.612 18.8405 108.354 18.8905 108.079 18.8905C107.812 18.8905 107.558 18.8405 107.316 18.7405C107.083 18.6322 106.879 18.4905 106.704 18.3155C106.529 18.1405 106.387 17.9363 106.279 17.703C106.179 17.4697 106.129 17.2197 106.129 16.953C106.129 16.678 106.179 16.4197 106.279 16.178C106.387 15.9363 106.529 15.728 106.704 15.553C106.879 15.378 107.083 15.2405 107.316 15.1405C107.558 15.0322 107.812 14.978 108.079 14.978C108.354 14.978 108.612 15.0322 108.854 15.1405C109.096 15.2405 109.304 15.378 109.479 15.553C109.662 15.728 109.808 15.9363 109.916 16.178C110.025 16.4197 110.079 16.678 110.079 16.953Z" fill="#3F51B5"/>
<path d="M115.889 30.1905C116.239 30.6155 116.618 30.9155 117.027 31.0905C117.443 31.2655 117.893 31.353 118.377 31.353C118.843 31.353 119.264 31.2655 119.639 31.0905C120.014 30.9155 120.331 30.6488 120.589 30.2905C120.856 29.9322 121.06 29.4822 121.202 28.9405C121.343 28.3905 121.414 27.7447 121.414 27.003C121.414 26.253 121.352 25.6197 121.227 25.103C121.11 24.578 120.939 24.153 120.714 23.828C120.489 23.503 120.214 23.2655 119.889 23.1155C119.572 22.9655 119.21 22.8905 118.802 22.8905C118.16 22.8905 117.614 23.028 117.164 23.303C116.714 23.5697 116.289 23.9488 115.889 24.4405V30.1905ZM115.727 22.4405C116.252 21.8488 116.847 21.3697 117.514 21.003C118.181 20.6363 118.964 20.453 119.864 20.453C120.564 20.453 121.202 20.5988 121.777 20.8905C122.36 21.1822 122.86 21.6072 123.277 22.1655C123.702 22.7155 124.027 23.3988 124.252 24.2155C124.485 25.0238 124.602 25.953 124.602 27.003C124.602 27.9613 124.472 28.8488 124.214 29.6655C123.956 30.4822 123.585 31.1905 123.102 31.7905C122.627 32.3905 122.047 32.8613 121.364 33.203C120.689 33.5363 119.931 33.703 119.089 33.703C118.372 33.703 117.76 33.5947 117.252 33.378C116.743 33.153 116.289 32.8447 115.889 32.453V37.703H112.802V20.6905H114.689C115.089 20.6905 115.352 20.878 115.477 21.253L115.727 22.4405ZM130.136 14.9405V33.5155H127.048V14.9405H130.136ZM144.262 20.6905V33.5155H142.374C141.966 33.5155 141.708 33.328 141.599 32.953L141.387 31.928C140.862 32.4613 140.283 32.8947 139.649 33.228C139.016 33.553 138.27 33.7155 137.412 33.7155C136.712 33.7155 136.091 33.5988 135.549 33.3655C135.016 33.1238 134.566 32.7863 134.199 32.353C133.833 31.9197 133.553 31.4072 133.362 30.8155C133.178 30.2155 133.087 29.5572 133.087 28.8405V20.6905H136.174V28.8405C136.174 29.6238 136.353 30.2322 136.712 30.6655C137.078 31.0905 137.624 31.303 138.349 31.303C138.883 31.303 139.383 31.1863 139.849 30.953C140.316 30.7113 140.758 30.3822 141.174 29.9655V20.6905H144.262ZM155.148 23.1905C155.065 23.3238 154.977 23.4197 154.886 23.478C154.794 23.528 154.677 23.553 154.536 23.553C154.386 23.553 154.223 23.5113 154.048 23.428C153.881 23.3447 153.686 23.253 153.461 23.153C153.236 23.0447 152.977 22.9488 152.686 22.8655C152.402 22.7822 152.065 22.7405 151.673 22.7405C151.065 22.7405 150.586 22.8697 150.236 23.128C149.894 23.3863 149.723 23.7238 149.723 24.1405C149.723 24.4155 149.811 24.6488 149.986 24.8405C150.169 25.0238 150.406 25.1863 150.698 25.328C150.998 25.4697 151.336 25.5988 151.711 25.7155C152.086 25.8238 152.465 25.9447 152.848 26.078C153.24 26.2113 153.623 26.3655 153.998 26.5405C154.373 26.7072 154.706 26.9238 154.998 27.1905C155.298 27.4488 155.536 27.7613 155.711 28.128C155.894 28.4947 155.986 28.9363 155.986 29.453C155.986 30.0697 155.873 30.6405 155.648 31.1655C155.431 31.6822 155.106 32.1322 154.673 32.5155C154.24 32.8905 153.702 33.1863 153.061 33.403C152.427 33.6113 151.694 33.7155 150.861 33.7155C150.419 33.7155 149.986 33.6738 149.561 33.5905C149.144 33.5155 148.74 33.4072 148.348 33.2655C147.965 33.1238 147.606 32.9572 147.273 32.7655C146.948 32.5738 146.661 32.3655 146.411 32.1405L147.123 30.9655C147.215 30.8238 147.323 30.7155 147.448 30.6405C147.573 30.5655 147.731 30.528 147.923 30.528C148.115 30.528 148.294 30.5822 148.461 30.6905C148.636 30.7988 148.836 30.9155 149.061 31.0405C149.286 31.1655 149.548 31.2822 149.848 31.3905C150.156 31.4988 150.544 31.553 151.011 31.553C151.377 31.553 151.69 31.5113 151.948 31.428C152.215 31.3363 152.431 31.2197 152.598 31.078C152.773 30.9363 152.898 30.7738 152.973 30.5905C153.056 30.3988 153.098 30.203 153.098 30.003C153.098 29.703 153.006 29.4572 152.823 29.2655C152.648 29.0738 152.411 28.9072 152.111 28.7655C151.819 28.6238 151.481 28.4988 151.098 28.3905C150.723 28.2738 150.336 28.1488 149.936 28.0155C149.544 27.8822 149.156 27.728 148.773 27.553C148.398 27.3697 148.061 27.1405 147.761 26.8655C147.469 26.5905 147.231 26.253 147.048 25.853C146.873 25.453 146.786 24.9697 146.786 24.403C146.786 23.878 146.89 23.378 147.098 22.903C147.306 22.428 147.611 22.0155 148.011 21.6655C148.419 21.3072 148.923 21.0238 149.523 20.8155C150.131 20.5988 150.831 20.4905 151.623 20.4905C152.506 20.4905 153.311 20.6363 154.036 20.928C154.761 21.2197 155.365 21.603 155.848 22.078L155.148 23.1905Z" fill="black"/>
<path fill-rule="evenodd" clip-rule="evenodd" d="M30.6643 49.031H31.7143V47.981V34.2969H44.898H45.948V33.2469V16.4079V15.3579H44.898V16.4079L44.8979 15.3579H44.8976H44.8971H44.8964H44.8955H44.8944H44.8932H44.8917H44.89H44.8882H44.8861H44.8838H44.8814H44.8788H44.876H44.8729H44.8697H44.8663H44.8628H44.859H44.855H44.8509H44.8465H44.842H44.8373H44.8324H44.8273H44.8221H44.8166H44.811H44.8052H44.7992H44.793H44.7867H44.7801H44.7734H44.7665H44.7595H44.7522H44.7448H44.7372H44.7294H44.7214H44.7133H44.705H44.6965H44.6878H44.679H44.67H44.6608H44.6514H44.6419H44.6322H44.6223H44.6123H44.6021H44.5917H44.5812H44.5704H44.5596H44.5485H44.5373H44.5259H44.5144H44.5027H44.4908H44.4788H44.4666H44.4542H44.4417H44.429H44.4161H44.4031H44.3899H44.3766H44.3631H44.3495H44.3357H44.3217H44.3076H44.2933H44.2789H44.2643H44.2496H44.2347H44.2196H44.2044H44.1891H44.1735H44.1579H44.1421H44.1261H44.11H44.0937H44.0773H44.0608H44.0441H44.0272H44.0102H43.9931H43.9758H43.9583H43.9407H43.923H43.9051H43.8871H43.869H43.8507H43.8322H43.8137H43.7949H43.7761H43.7571H43.7379H43.7187H43.6992H43.6797H43.66H43.6402H43.6202H43.6001H43.5799H43.5595H43.539H43.5184H43.4976H43.4767H43.4557H43.4345H43.4132H43.3918H43.3702H43.3485H43.3267H43.3048H43.2827H43.2605H43.2382H43.2158H43.1932H43.1705H43.1477H43.1248H43.1017H43.0785H43.0552H43.0318H43.0082H42.9845H42.9607H42.9368H42.9128H42.8886H42.8644H42.84H42.8155H42.7909H42.7661H42.7413H42.7163H42.6912H42.666H42.6407H42.6153H42.5898H42.5641H42.5384H42.5125H42.4866H42.4605H42.4343H42.408H42.3816H42.3551H42.3284H42.3017H42.2749H42.2479H42.2209H42.1937H42.1665H42.1391H42.1117H42.0841H42.0564H42.0287H42.0008H41.9729H41.9448H41.9166H41.8884H41.86H41.8316H41.803H41.7744H41.7456H41.7168H41.6878H41.6588H41.6297H41.6005H41.5712H41.5418H41.5123H41.4827H41.453H41.4233H41.3934H41.3635H41.3334H41.3033H41.2731H41.2428H41.2124H41.182H41.1514H41.1208H41.0901H41.0593H41.0284H40.9974H40.9664H40.9352H40.904H40.8727H40.8414H40.8099H40.7784H40.7468H40.7151H40.6833H40.6515H40.6196H40.5876H40.5555H40.5234H40.4911H40.4588H40.4265H40.394H40.3615H40.329H40.2963H40.2636H40.2308H40.1979H40.165H40.132H40.0989H40.0658H40.0326H39.9993H39.966H39.9326H39.8992H39.8656H39.832H39.7984H39.7647H39.7309H39.6971H39.6632H39.6292H39.5952H39.5611H39.527H39.4928H39.4585H39.4242H39.3898H39.3554H39.3209H39.2864H39.2518H39.2171H39.1825H39.1477H39.1129H39.078H39.0431H39.0082H38.9732H38.9381H38.903H38.8678H38.8326H38.7974H38.7621H38.7267H38.6913H38.6559H38.6204H38.5849H38.5493H38.5137H38.478H38.4423H38.4066H38.3708H38.335H38.2991H38.2632H38.2273H38.1913H38.1553H38.1192H38.0831H38.047H38.0108H37.9746H37.9384H37.9021H37.8658H37.8294H37.793H37.7566H37.7202H37.6837H37.6472H37.6107H37.5741H37.5375H37.5009H37.4643H37.4276H37.3909H37.3541H37.3174H37.2806H37.2438H37.2069H37.1701H37.1332H37.0963H37.0594H37.0224H36.9855H36.9485H36.9115H36.8744H36.8374H36.8003H36.7632H36.7261H36.689H36.6518H36.6147H36.5775H36.5403H36.5031H36.4659H36.4287H36.3914H36.3542H36.3169H36.2796H36.2423H36.2051H36.1677H36.1304H36.0931H36.0558H36.0184H35.9811H35.9437H35.9063H35.869H35.8316H35.7942H35.7568H35.7195H35.6821H35.6447H35.6073H35.5699H35.5325H35.4951H35.4577H35.4203H35.3829H35.3455H35.3081H35.2707H35.2334H35.196H35.1586H35.1212H35.0839H35.0465H35.0092H34.9718H34.9345H34.8971H34.8598H34.8225H34.7852H34.7479H34.7106H34.6734H34.6361H34.5989H34.5616H34.5244H34.4872H34.45H34.4128H34.3757H34.3385H34.3014H34.2643H34.2272H34.1901H34.153H34.116H34.079H34.042H34.005H33.9681H33.9311H33.8942H33.8573H33.8204H33.7836H33.7468H33.71H33.6732H33.6365H33.5998H33.5631H33.5264H33.4898H33.4532H33.4166H33.3801H33.3435H33.3071H33.2706H33.2342H33.1978H33.1614H33.1251H33.0888H33.0526H33.0164H32.9802H32.944H32.9079H32.8718H32.8358H32.7998H32.7638H32.7279H32.692H32.6562H32.6204H32.5846H32.5489H32.5133H32.4776H32.442H32.4065H32.371H32.3355H32.3001H32.2648H32.2294H32.1942H32.159H32.1238H32.0887H32.0536H32.0186H31.9836H31.9486H31.9138H31.879H31.8442H31.8095H31.7748H31.7402H31.7056H31.6711H31.6367H31.6023H31.568H31.5337H31.4995H31.4653H31.4312H31.3972H31.3632H31.3293H31.2954H31.2616H31.2279H31.1942H31.1606H31.127H31.0936H31.0601H31.0268H30.9935H30.9603H30.9271H30.894H30.861H30.828H30.7952H30.7623H30.7296H30.6969H30.6643H22.5308H22.5135L22.4962 15.3585C21.6638 15.3859 20.679 15.8521 19.7849 16.419C18.8408 17.0176 17.8198 17.844 16.8792 18.8041C15.0819 20.6388 13.3511 23.1985 13.3462 25.7692C14.7374 21.9817 17.2708 19.1623 20.8057 18.2592C20.8404 18.2366 20.875 18.2144 20.9094 18.1926C21.7401 17.6659 22.3114 17.4718 22.5528 17.4579H30.6643H30.6969H30.7296H30.7623H30.7952H30.828H30.861H30.894H30.9271H30.9603H30.9935H31.0268H31.0601H31.0936H31.127H31.1606H31.1942H31.2279H31.2616H31.2954H31.3293H31.3632H31.3972H31.4312H31.4653H31.4995H31.5337H31.568H31.6023H31.6367H31.6711H31.7056H31.7402H31.7748H31.8095H31.8442H31.879H31.9138H31.9486H31.9836H32.0186H32.0536H32.0887H32.1238H32.159H32.1942H32.2294H32.2648H32.3001H32.3355H32.371H32.4065H32.442H32.4776H32.5133H32.5489H32.5846H32.6204H32.6562H32.692H32.7279H32.7638H32.7998H32.8358H32.8718H32.9079H32.944H32.9802H33.0164H33.0526H33.0888H33.1251H33.1614H33.1978H33.2342H33.2706H33.3071H33.3435H33.3801H33.4166H33.4532H33.4898H33.5264H33.5631H33.5998H33.6365H33.6732H33.71H33.7468H33.7836H33.8204H33.8573H33.8942H33.9311H33.9681H34.005H34.042H34.079H34.116H34.153H34.1901H34.2272H34.2643H34.3014H34.3385H34.3757H34.4128H34.45H34.4872H34.5244H34.5616H34.5989H34.6361H34.6734H34.7106H34.7479H34.7852H34.8225H34.8598H34.8971H34.9345H34.9718H35.0092H35.0465H35.0839H35.1212H35.1586H35.196H35.2334H35.2707H35.3081H35.3455H35.3829H35.4203H35.4577H35.4951H35.5325H35.5699H35.6073H35.6447H35.6821H35.7195H35.7568H35.7942H35.8316H35.869H35.9063H35.9437H35.9811H36.0184H36.0558H36.0931H36.1304H36.1677H36.2051H36.2423H36.2796H36.3169H36.3542H36.3914H36.4287H36.4659H36.5031H36.5403H36.5775H36.6147H36.6518H36.689H36.7261H36.7632H36.8003H36.8374H36.8744H36.9115H36.9485H36.9855H37.0224H37.0594H37.0963H37.1332H37.1701H37.2069H37.2438H37.2806H37.3174H37.3541H37.3909H37.4276H37.4643H37.5009H37.5375H37.5741H37.6107H37.6472H37.6837H37.7202H37.7566H37.793H37.8294H37.8658H37.9021H37.9384H37.9746H38.0108H38.047H38.0831H38.1192H38.1553H38.1913H38.2273H38.2632H38.2991H38.335H38.3708H38.4066H38.4423H38.478H38.5137H38.5493H38.5849H38.6204H38.6559H38.6913H38.7267H38.7621H38.7974H38.8326H38.8678H38.903H38.9381H38.9732H39.0082H39.0431H39.078H39.1129H39.1477H39.1825H39.2171H39.2518H39.2864H39.3209H39.3554H39.3898H39.4242H39.4585H39.4928H39.527H39.5611H39.5952H39.6292H39.6632H39.6971H39.7309H39.7647H39.7984H39.832H39.8656H39.8992H39.9326H39.966H39.9993H40.0326H40.0658H40.0989H40.132H40.165H40.1979H40.2308H40.2636H40.2963H40.329H40.3615H40.394H40.4265H40.4588H40.4911H40.5234H40.5555H40.5876H40.6196H40.6515H40.6833H40.7151H40.7468H40.7784H40.8099H40.8414H40.8727H40.904H40.9352H40.9664H40.9974H41.0284H41.0593H41.0901H41.1208H41.1514H41.182H41.2124H41.2428H41.2731H41.3033H41.3334H41.3635H41.3934H41.4233H41.453H41.4827H41.5123H41.5418H41.5712H41.6005H41.6297H41.6588H41.6878H41.7168H41.7456H41.7744H41.803H41.8316H41.86H41.8884H41.9166H41.9448H41.9729H42.0008H42.0287H42.0564H42.0841H42.1117H42.1391H42.1665H42.1937H42.2209H42.2479H42.2749H42.3017H42.3284H42.3551H42.3816H42.408H42.4343H42.4605H42.4866H42.5125H42.5384H42.5641H42.5898H42.6153H42.6407H42.666H42.6912H42.7163H42.7413H42.7661H42.7909H42.8155H42.84H42.8644H42.8886H42.9128H42.9368H42.9607H42.9845H43.0082H43.0318H43.0552H43.0785H43.1017H43.1248H43.1477H43.1705H43.1932H43.2158H43.2382H43.2605H43.2827H43.3048H43.3267H43.3485H43.3702H43.3918H43.4132H43.4345H43.4557H43.4767H43.4976H43.5184H43.539H43.5595H43.5799H43.6001H43.6202H43.6402H43.66H43.6797H43.6992H43.7187H43.7379H43.7571H43.7761H43.7949H43.8137H43.8322H43.848V32.1969H30.6643H29.6143V33.2469V46.931H15.4473V35.3517H13.3473V47.981V49.031H14.3972H30.6643Z" fill="#3F51B5"/>
<path fill-rule="evenodd" clip-rule="evenodd" d="M15.2837 3.43323e-05H14.2337V1.05003V14.7341H1.05H5.48538e-06V15.7841V32.6231V33.6731H1.05V32.6231L1.0501 33.6731H1.0504H1.0509H1.05159H1.05248H1.05356H1.05484H1.05631H1.05798H1.05984H1.0619H1.06415H1.06659H1.06922H1.07205H1.07506H1.07826H1.08166H1.08524H1.08901H1.09297H1.09712H1.10145H1.10597H1.11068H1.11557H1.12065H1.12591H1.13136H1.13698H1.14279H1.14879H1.15496H1.16132H1.16785H1.17457H1.18147H1.18854H1.1958H1.20323H1.21084H1.21862H1.22659H1.23472H1.24304H1.25153H1.26019H1.26903H1.27804H1.28722H1.29657H1.3061H1.3158H1.32567H1.3357H1.34591H1.35629H1.36684H1.37755H1.38843H1.39948H1.41069H1.42207H1.43362H1.44533H1.4572H1.46924H1.48144H1.49381H1.50634H1.51902H1.53187H1.54488H1.55805H1.57138H1.58487H1.59852H1.61232H1.62629H1.64041H1.65468H1.66911H1.6837H1.69844H1.71334H1.72839H1.74359H1.75895H1.77446H1.79012H1.80593H1.82189H1.838H1.85426H1.87067H1.88723H1.90393H1.92079H1.93779H1.95493H1.97223H1.98967H2.00725H2.02498H2.04285H2.06086H2.07902H2.09732H2.11576H2.13434H2.15306H2.17192H2.19093H2.21007H2.22935H2.24876H2.26832H2.28801H2.30784H2.3278H2.3479H2.36814H2.3885H2.40901H2.42964H2.45041H2.47131H2.49234H2.5135H2.5348H2.55622H2.57777H2.59945H2.62126H2.6432H2.66527H2.68746H2.70978H2.73222H2.75479H2.77748H2.8003H2.82325H2.84631H2.8695H2.89281H2.91624H2.93979H2.96347H2.98726H3.01117H3.03521H3.05936H3.08363H3.10801H3.13251H3.15713H3.18187H3.20672H3.23168H3.25676H3.28195H3.30726H3.33268H3.35821H3.38385H3.4096H3.43547H3.46144H3.48752H3.51372H3.54002H3.56643H3.59294H3.61956H3.64629H3.67313H3.70007H3.72711H3.75426H3.78151H3.80887H3.83633H3.86389H3.89155H3.91931H3.94718H3.97514H4.0032H4.03137H4.05963H4.08798H4.11644H4.14499H4.17364H4.20238H4.23123H4.26016H4.28919H4.31831H4.34753H4.37683H4.40623H4.43573H4.46531H4.49498H4.52474H4.5546H4.58454H4.61457H4.64469H4.67489H4.70518H4.73556H4.76602H4.79657H4.82721H4.85793H4.88873H4.91961H4.95058H4.98163H5.01276H5.04397H5.07526H5.10664H5.13809H5.16962H5.20123H5.23291H5.26468H5.29652H5.32844H5.36043H5.3925H5.42464H5.45686H5.48915H5.52151H5.55395H5.58646H5.61904H5.65169H5.68441H5.7172H5.75006H5.78299H5.81599H5.84905H5.88219H5.91539H5.94865H5.98198H6.01538H6.04885H6.08237H6.11596H6.14961H6.18333H6.21711H6.25094H6.28484H6.3188H6.35282H6.3869H6.42104H6.45524H6.48949H6.5238H6.55817H6.5926H6.62708H6.66161H6.6962H6.73085H6.76555H6.8003H6.8351H6.86995H6.90486H6.93982H6.97483H7.00989H7.045H7.08015H7.11536H7.15061H7.18591H7.22126H7.25665H7.29209H7.32757H7.3631H7.39867H7.43429H7.46995H7.50565H7.54139H7.57718H7.61301H7.64887H7.68478H7.72072H7.75671H7.79273H7.82879H7.86489H7.90103H7.9372H7.9734H8.00965H8.04592H8.08223H8.11858H8.15495H8.19136H8.2278H8.26428H8.30078H8.33732H8.37388H8.41047H8.4471H8.48375H8.52043H8.55713H8.59386H8.63062H8.66741H8.70422H8.74105H8.77791H8.81479H8.8517H8.88862H8.92557H8.96254H8.99953H9.03655H9.07358H9.11063H9.1477H9.18479H9.22189H9.25902H9.29616H9.33331H9.37049H9.40767H9.44487H9.48209H9.51932H9.55656H9.59381H9.63108H9.66836H9.70565H9.74295H9.78026H9.81757H9.8549H9.89224H9.92958H9.96693H10.0043H10.0417H10.079H10.1164H10.1538H10.1912H10.2285H10.2659H10.3033H10.3407H10.3781H10.4155H10.4529H10.4903H10.5277H10.5651H10.6025H10.6399H10.6773H10.7146H10.752H10.7894H10.8268H10.8641H10.9015H10.9388H10.9762H11.0135H11.0509H11.0882H11.1255H11.1628H11.2001H11.2374H11.2746H11.3119H11.3491H11.3864H11.4236H11.4608H11.498H11.5352H11.5723H11.6095H11.6466H11.6837H11.7208H11.7579H11.795H11.832H11.869H11.906H11.943H11.9799H12.0169H12.0538H12.0907H12.1275H12.1644H12.2012H12.238H12.2748H12.3115H12.3482H12.3849H12.4216H12.4582H12.4948H12.5314H12.5679H12.6044H12.6409H12.6774H12.7138H12.7502H12.7866H12.8229H12.8592H12.8954H12.9316H12.9678H13.004H13.0401H13.0762H13.1122H13.1482H13.1842H13.2201H13.256H13.2918H13.3276H13.3634H13.3991H13.4347H13.4704H13.506H13.5415H13.577H13.6125H13.6479H13.6832H13.7186H13.7538H13.789H13.8242H13.8593H13.8944H13.9294H13.9644H13.9993H14.0342H14.069H14.1038H14.1385H14.1732H14.2078H14.2424H14.2769H14.3113H14.3457H14.38H14.4143H14.4485H14.4827H14.5168H14.5508H14.5848H14.6187H14.6526H14.6864H14.7201H14.7538H14.7874H14.821H14.8544H14.8879H14.9212H14.9545H14.9877H15.0209H15.054H15.087H15.12H15.1528H15.1857H15.2184H15.2511H15.2837H23.4172H23.4345L23.4518 33.6725C24.2842 33.6451 25.269 33.1789 26.1631 32.612C27.1072 32.0135 28.1282 31.187 29.0688 30.2269C30.8661 28.3922 32.5969 25.8325 32.6018 23.2618C31.2106 27.0493 28.6772 29.8687 25.1423 30.7718C25.1076 30.7944 25.073 30.8166 25.0386 30.8384C24.2079 31.3651 23.6366 31.5592 23.3952 31.5731H15.2837H15.2511H15.2184H15.1857H15.1528H15.12H15.087H15.054H15.0209H14.9877H14.9545H14.9212H14.8879H14.8544H14.821H14.7874H14.7538H14.7201H14.6864H14.6526H14.6187H14.5848H14.5508H14.5168H14.4827H14.4485H14.4143H14.38H14.3457H14.3113H14.2769H14.2424H14.2078H14.1732H14.1385H14.1038H14.069H14.0342H13.9993H13.9644H13.9294H13.8944H13.8593H13.8242H13.789H13.7538H13.7186H13.6832H13.6479H13.6125H13.577H13.5415H13.506H13.4704H13.4347H13.3991H13.3634H13.3276H13.2918H13.256H13.2201H13.1842H13.1482H13.1122H13.0762H13.0401H13.004H12.9678H12.9316H12.8954H12.8592H12.8229H12.7866H12.7502H12.7138H12.6774H12.6409H12.6044H12.5679H12.5314H12.4948H12.4582H12.4216H12.3849H12.3482H12.3115H12.2748H12.238H12.2012H12.1644H12.1275H12.0907H12.0538H12.0169H11.9799H11.943H11.906H11.869H11.832H11.795H11.7579H11.7208H11.6837H11.6466H11.6095H11.5723H11.5352H11.498H11.4608H11.4236H11.3864H11.3491H11.3119H11.2746H11.2374H11.2001H11.1628H11.1255H11.0882H11.0509H11.0135H10.9762H10.9388H10.9015H10.8641H10.8268H10.7894H10.752H10.7146H10.6773H10.6399H10.6025H10.5651H10.5277H10.4903H10.4529H10.4155H10.3781H10.3407H10.3033H10.2659H10.2285H10.1912H10.1538H10.1164H10.079H10.0417H10.0043H9.96693H9.92958H9.89224H9.8549H9.81757H9.78026H9.74295H9.70565H9.66836H9.63108H9.59381H9.55656H9.51932H9.48209H9.44487H9.40767H9.37049H9.33331H9.29616H9.25902H9.22189H9.18479H9.1477H9.11063H9.07358H9.03655H8.99953H8.96254H8.92557H8.88862H8.8517H8.81479H8.77791H8.74105H8.70422H8.66741H8.63062H8.59386H8.55713H8.52043H8.48375H8.4471H8.41047H8.37388H8.33732H8.30078H8.26428H8.2278H8.19136H8.15495H8.11858H8.08223H8.04592H8.00965H7.9734H7.9372H7.90103H7.86489H7.82879H7.79273H7.75671H7.72072H7.68478H7.64887H7.61301H7.57718H7.54139H7.50565H7.46995H7.43429H7.39867H7.3631H7.32757H7.29209H7.25665H7.22126H7.18591H7.15061H7.11536H7.08015H7.045H7.00989H6.97483H6.93982H6.90486H6.86995H6.8351H6.8003H6.76555H6.73085H6.6962H6.66161H6.62708H6.5926H6.55817H6.5238H6.48949H6.45524H6.42104H6.3869H6.35282H6.3188H6.28484H6.25094H6.21711H6.18333H6.14961H6.11596H6.08237H6.04885H6.01538H5.98198H5.94865H5.91539H5.88219H5.84905H5.81599H5.78299H5.75006H5.7172H5.68441H5.65169H5.61904H5.58646H5.55395H5.52151H5.48915H5.45686H5.42464H5.3925H5.36043H5.32844H5.29652H5.26468H5.23291H5.20123H5.16962H5.13809H5.10664H5.07526H5.04397H5.01276H4.98163H4.95058H4.91961H4.88873H4.85793H4.82721H4.79657H4.76602H4.73556H4.70518H4.67489H4.64469H4.61457H4.58454H4.5546H4.52474H4.49498H4.46531H4.43573H4.40623H4.37683H4.34753H4.31831H4.28919H4.26016H4.23123H4.20238H4.17364H4.14499H4.11644H4.08798H4.05963H4.03137H4.0032H3.97514H3.94718H3.91931H3.89155H3.86389H3.83633H3.80887H3.78151H3.75426H3.72711H3.70007H3.67313H3.64629H3.61956H3.59294H3.56643H3.54002H3.51372H3.48752H3.46144H3.43547H3.4096H3.38385H3.35821H3.33268H3.30726H3.28195H3.25676H3.23168H3.20672H3.18187H3.15713H3.13251H3.10801H3.08363H3.05936H3.03521H3.01117H2.98726H2.96347H2.93979H2.91624H2.89281H2.8695H2.84631H2.82325H2.8003H2.77748H2.75479H2.73222H2.70978H2.68746H2.66527H2.6432H2.62126H2.59945H2.57777H2.55622H2.5348H2.5135H2.49234H2.47131H2.45041H2.42964H2.40901H2.3885H2.36814H2.3479H2.3278H2.30784H2.28801H2.26832H2.24876H2.22935H2.21007H2.19093H2.17192H2.15306H2.13434H2.11576H2.1V16.8341H15.2837H16.3337V15.7841V2.10003H30.5007V13.6793H32.6007V1.05003V3.43323e-05H31.5507H15.2837Z" fill="#3F51B5"/>
</svg>
