<svg width="46" height="50" viewBox="0 0 46 50" fill="none" xmlns="http://www.w3.org/2000/svg">
<path fill-rule="evenodd" clip-rule="evenodd" d="M30.6643 49.031H31.7143V47.981V34.2969H44.898H45.948V33.2469V16.4079V15.3579H44.898V16.4079L44.8979 15.3579H44.8976H44.8971H44.8964H44.8955H44.8944H44.8932H44.8917H44.89H44.8882H44.8861H44.8838H44.8814H44.8788H44.876H44.8729H44.8697H44.8663H44.8628H44.859H44.855H44.8509H44.8465H44.842H44.8373H44.8324H44.8273H44.8221H44.8166H44.811H44.8052H44.7992H44.793H44.7867H44.7801H44.7734H44.7665H44.7595H44.7522H44.7448H44.7372H44.7294H44.7214H44.7133H44.705H44.6965H44.6878H44.679H44.67H44.6608H44.6514H44.6419H44.6322H44.6223H44.6123H44.6021H44.5917H44.5812H44.5704H44.5596H44.5485H44.5373H44.5259H44.5144H44.5027H44.4908H44.4788H44.4666H44.4542H44.4417H44.429H44.4161H44.4031H44.3899H44.3766H44.3631H44.3495H44.3357H44.3217H44.3076H44.2933H44.2789H44.2643H44.2496H44.2347H44.2196H44.2044H44.1891H44.1735H44.1579H44.1421H44.1261H44.11H44.0937H44.0773H44.0608H44.0441H44.0272H44.0102H43.9931H43.9758H43.9583H43.9407H43.923H43.9051H43.8871H43.869H43.8507H43.8322H43.8137H43.7949H43.7761H43.7571H43.7379H43.7187H43.6992H43.6797H43.66H43.6402H43.6202H43.6001H43.5799H43.5595H43.539H43.5184H43.4976H43.4767H43.4557H43.4345H43.4132H43.3918H43.3702H43.3485H43.3267H43.3048H43.2827H43.2605H43.2382H43.2158H43.1932H43.1705H43.1477H43.1248H43.1017H43.0785H43.0552H43.0318H43.0082H42.9845H42.9607H42.9368H42.9128H42.8886H42.8644H42.84H42.8155H42.7909H42.7661H42.7413H42.7163H42.6912H42.666H42.6407H42.6153H42.5898H42.5641H42.5384H42.5125H42.4866H42.4605H42.4343H42.408H42.3816H42.3551H42.3284H42.3017H42.2749H42.2479H42.2209H42.1937H42.1665H42.1391H42.1117H42.0841H42.0564H42.0287H42.0008H41.9729H41.9448H41.9166H41.8884H41.86H41.8316H41.803H41.7744H41.7456H41.7168H41.6878H41.6588H41.6297H41.6005H41.5712H41.5418H41.5123H41.4827H41.453H41.4233H41.3934H41.3635H41.3334H41.3033H41.2731H41.2428H41.2124H41.182H41.1514H41.1208H41.0901H41.0593H41.0284H40.9974H40.9664H40.9352H40.904H40.8727H40.8414H40.8099H40.7784H40.7468H40.7151H40.6833H40.6515H40.6196H40.5876H40.5555H40.5234H40.4911H40.4588H40.4265H40.394H40.3615H40.329H40.2963H40.2636H40.2308H40.1979H40.165H40.132H40.0989H40.0658H40.0326H39.9993H39.966H39.9326H39.8992H39.8656H39.832H39.7984H39.7647H39.7309H39.6971H39.6632H39.6292H39.5952H39.5611H39.527H39.4928H39.4585H39.4242H39.3898H39.3554H39.3209H39.2864H39.2518H39.2171H39.1825H39.1477H39.1129H39.078H39.0431H39.0082H38.9732H38.9381H38.903H38.8678H38.8326H38.7974H38.7621H38.7267H38.6913H38.6559H38.6204H38.5849H38.5493H38.5137H38.478H38.4423H38.4066H38.3708H38.335H38.2991H38.2632H38.2273H38.1913H38.1553H38.1192H38.0831H38.047H38.0108H37.9746H37.9384H37.9021H37.8658H37.8294H37.793H37.7566H37.7202H37.6837H37.6472H37.6107H37.5741H37.5375H37.5009H37.4643H37.4276H37.3909H37.3541H37.3174H37.2806H37.2438H37.2069H37.1701H37.1332H37.0963H37.0594H37.0224H36.9855H36.9485H36.9115H36.8744H36.8374H36.8003H36.7632H36.7261H36.689H36.6518H36.6147H36.5775H36.5403H36.5031H36.4659H36.4287H36.3914H36.3542H36.3169H36.2796H36.2424H36.2051H36.1677H36.1304H36.0931H36.0558H36.0184H35.9811H35.9437H35.9063H35.869H35.8316H35.7942H35.7568H35.7195H35.6821H35.6447H35.6073H35.5699H35.5325H35.4951H35.4577H35.4203H35.3829H35.3455H35.3081H35.2707H35.2334H35.196H35.1586H35.1212H35.0839H35.0465H35.0092H34.9718H34.9345H34.8971H34.8598H34.8225H34.7852H34.7479H34.7106H34.6734H34.6361H34.5989H34.5616H34.5244H34.4872H34.45H34.4128H34.3757H34.3385H34.3014H34.2643H34.2272H34.1901H34.153H34.116H34.079H34.042H34.005H33.9681H33.9311H33.8942H33.8573H33.8204H33.7836H33.7468H33.71H33.6732H33.6365H33.5998H33.5631H33.5264H33.4898H33.4532H33.4166H33.3801H33.3435H33.3071H33.2706H33.2342H33.1978H33.1614H33.1251H33.0888H33.0526H33.0164H32.9802H32.944H32.9079H32.8718H32.8358H32.7998H32.7638H32.7279H32.692H32.6562H32.6204H32.5846H32.5489H32.5133H32.4776H32.442H32.4065H32.371H32.3355H32.3001H32.2648H32.2294H32.1942H32.159H32.1238H32.0887H32.0536H32.0186H31.9836H31.9487H31.9138H31.879H31.8442H31.8095H31.7748H31.7402H31.7056H31.6711H31.6367H31.6023H31.568H31.5337H31.4995H31.4653H31.4312H31.3972H31.3632H31.3293H31.2954H31.2616H31.2279H31.1942H31.1606H31.127H31.0936H31.0601H31.0268H30.9935H30.9603H30.9271H30.894H30.861H30.828H30.7952H30.7623H30.7296H30.6969H30.6643H22.5308H22.5135L22.4962 15.3585C21.6638 15.3859 20.679 15.8521 19.7849 16.419C18.8408 17.0176 17.8198 17.844 16.8792 18.8041C15.0819 20.6388 13.3511 23.1985 13.3462 25.7692C14.7374 21.9817 17.2708 19.1623 20.8057 18.2592C20.8404 18.2366 20.875 18.2144 20.9094 18.1926C21.7401 17.6659 22.3114 17.4718 22.5528 17.4579H30.6643H30.6969H30.7296H30.7623H30.7952H30.828H30.861H30.894H30.9271H30.9603H30.9935H31.0268H31.0601H31.0936H31.127H31.1606H31.1942H31.2279H31.2616H31.2954H31.3293H31.3632H31.3972H31.4312H31.4653H31.4995H31.5337H31.568H31.6023H31.6367H31.6711H31.7056H31.7402H31.7748H31.8095H31.8442H31.879H31.9138H31.9487H31.9836H32.0186H32.0536H32.0887H32.1238H32.159H32.1942H32.2294H32.2648H32.3001H32.3355H32.371H32.4065H32.442H32.4776H32.5133H32.5489H32.5846H32.6204H32.6562H32.692H32.7279H32.7638H32.7998H32.8358H32.8718H32.9079H32.944H32.9802H33.0164H33.0526H33.0888H33.1251H33.1614H33.1978H33.2342H33.2706H33.3071H33.3435H33.3801H33.4166H33.4532H33.4898H33.5264H33.5631H33.5998H33.6365H33.6732H33.71H33.7468H33.7836H33.8204H33.8573H33.8942H33.9311H33.9681H34.005H34.042H34.079H34.116H34.153H34.1901H34.2272H34.2643H34.3014H34.3385H34.3757H34.4128H34.45H34.4872H34.5244H34.5616H34.5989H34.6361H34.6734H34.7106H34.7479H34.7852H34.8225H34.8598H34.8971H34.9345H34.9718H35.0092H35.0465H35.0839H35.1212H35.1586H35.196H35.2334H35.2707H35.3081H35.3455H35.3829H35.4203H35.4577H35.4951H35.5325H35.5699H35.6073H35.6447H35.6821H35.7195H35.7568H35.7942H35.8316H35.869H35.9063H35.9437H35.9811H36.0184H36.0558H36.0931H36.1304H36.1677H36.2051H36.2424H36.2796H36.3169H36.3542H36.3914H36.4287H36.4659H36.5031H36.5403H36.5775H36.6147H36.6518H36.689H36.7261H36.7632H36.8003H36.8374H36.8744H36.9115H36.9485H36.9855H37.0224H37.0594H37.0963H37.1332H37.1701H37.2069H37.2438H37.2806H37.3174H37.3541H37.3909H37.4276H37.4643H37.5009H37.5375H37.5741H37.6107H37.6472H37.6837H37.7202H37.7566H37.793H37.8294H37.8658H37.9021H37.9384H37.9746H38.0108H38.047H38.0831H38.1192H38.1553H38.1913H38.2273H38.2632H38.2991H38.335H38.3708H38.4066H38.4423H38.478H38.5137H38.5493H38.5849H38.6204H38.6559H38.6913H38.7267H38.7621H38.7974H38.8326H38.8678H38.903H38.9381H38.9732H39.0082H39.0431H39.078H39.1129H39.1477H39.1825H39.2171H39.2518H39.2864H39.3209H39.3554H39.3898H39.4242H39.4585H39.4928H39.527H39.5611H39.5952H39.6292H39.6632H39.6971H39.7309H39.7647H39.7984H39.832H39.8656H39.8992H39.9326H39.966H39.9993H40.0326H40.0658H40.0989H40.132H40.165H40.1979H40.2308H40.2636H40.2963H40.329H40.3615H40.394H40.4265H40.4588H40.4911H40.5234H40.5555H40.5876H40.6196H40.6515H40.6833H40.7151H40.7468H40.7784H40.8099H40.8414H40.8727H40.904H40.9352H40.9664H40.9974H41.0284H41.0593H41.0901H41.1208H41.1514H41.182H41.2124H41.2428H41.2731H41.3033H41.3334H41.3635H41.3934H41.4233H41.453H41.4827H41.5123H41.5418H41.5712H41.6005H41.6297H41.6588H41.6878H41.7168H41.7456H41.7744H41.803H41.8316H41.86H41.8884H41.9166H41.9448H41.9729H42.0008H42.0287H42.0564H42.0841H42.1117H42.1391H42.1665H42.1937H42.2209H42.2479H42.2749H42.3017H42.3284H42.3551H42.3816H42.408H42.4343H42.4605H42.4866H42.5125H42.5384H42.5641H42.5898H42.6153H42.6407H42.666H42.6912H42.7163H42.7413H42.7661H42.7909H42.8155H42.84H42.8644H42.8886H42.9128H42.9368H42.9607H42.9845H43.0082H43.0318H43.0552H43.0785H43.1017H43.1248H43.1477H43.1705H43.1932H43.2158H43.2382H43.2605H43.2827H43.3048H43.3267H43.3485H43.3702H43.3918H43.4132H43.4345H43.4557H43.4767H43.4976H43.5184H43.539H43.5595H43.5799H43.6001H43.6202H43.6402H43.66H43.6797H43.6992H43.7187H43.7379H43.7571H43.7761H43.7949H43.8137H43.8322H43.848V32.1969H30.6643H29.6143V33.2469V46.931H15.4473V35.3517H13.3473V47.981V49.031H14.3972H30.6643Z" fill="#3F51B5"/>
<path fill-rule="evenodd" clip-rule="evenodd" d="M15.2837 3.43323e-05H14.2337V1.05003V14.7341H1.05H3.57676e-06V15.7841V32.6231V33.6731H1.05V32.6231L1.0501 33.6731H1.0504H1.0509H1.05159H1.05248H1.05356H1.05484H1.05631H1.05798H1.05984H1.0619H1.06415H1.06659H1.06922H1.07205H1.07506H1.07826H1.08166H1.08524H1.08901H1.09297H1.09712H1.10145H1.10597H1.11068H1.11557H1.12065H1.12591H1.13136H1.13698H1.14279H1.14879H1.15496H1.16132H1.16785H1.17457H1.18147H1.18854H1.1958H1.20323H1.21084H1.21862H1.22659H1.23472H1.24304H1.25153H1.26019H1.26903H1.27804H1.28722H1.29657H1.3061H1.3158H1.32567H1.3357H1.34591H1.35629H1.36684H1.37755H1.38843H1.39948H1.41069H1.42207H1.43362H1.44533H1.4572H1.46924H1.48145H1.49381H1.50634H1.51902H1.53187H1.54488H1.55805H1.57138H1.58487H1.59852H1.61232H1.62629H1.64041H1.65468H1.66911H1.6837H1.69844H1.71334H1.72839H1.74359H1.75895H1.77446H1.79012H1.80593H1.82189H1.838H1.85426H1.87067H1.88723H1.90393H1.92079H1.93779H1.95493H1.97223H1.98967H2.00725H2.02498H2.04285H2.06086H2.07902H2.09732H2.11576H2.13434H2.15306H2.17192H2.19093H2.21007H2.22935H2.24876H2.26832H2.28801H2.30784H2.3278H2.3479H2.36814H2.3885H2.40901H2.42964H2.45041H2.47131H2.49234H2.5135H2.5348H2.55622H2.57777H2.59945H2.62126H2.6432H2.66527H2.68746H2.70978H2.73222H2.75479H2.77748H2.8003H2.82325H2.84631H2.8695H2.89281H2.91624H2.9398H2.96347H2.98726H3.01117H3.03521H3.05936H3.08363H3.10801H3.13251H3.15713H3.18187H3.20672H3.23168H3.25676H3.28195H3.30726H3.33268H3.35821H3.38385H3.4096H3.43547H3.46144H3.48753H3.51372H3.54002H3.56643H3.59294H3.61956H3.64629H3.67313H3.70007H3.72711H3.75426H3.78151H3.80887H3.83633H3.86389H3.89155H3.91931H3.94718H3.97514H4.0032H4.03137H4.05963H4.08798H4.11644H4.14499H4.17364H4.20238H4.23123H4.26016H4.28919H4.31831H4.34753H4.37683H4.40623H4.43573H4.46531H4.49498H4.52474H4.5546H4.58454H4.61457H4.64469H4.67489H4.70518H4.73556H4.76603H4.79657H4.82721H4.85793H4.88873H4.91961H4.95058H4.98163H5.01276H5.04397H5.07526H5.10664H5.13809H5.16962H5.20123H5.23291H5.26468H5.29652H5.32844H5.36043H5.3925H5.42464H5.45686H5.48915H5.52151H5.55395H5.58646H5.61904H5.65169H5.68441H5.7172H5.75006H5.78299H5.81599H5.84906H5.88219H5.91539H5.94865H5.98199H6.01538H6.04885H6.08237H6.11596H6.14961H6.18333H6.21711H6.25094H6.28484H6.3188H6.35282H6.3869H6.42104H6.45524H6.48949H6.5238H6.55817H6.5926H6.62708H6.66161H6.6962H6.73085H6.76554H6.8003H6.8351H6.86996H6.90486H6.93982H6.97483H7.00989H7.045H7.08015H7.11536H7.15061H7.18591H7.22126H7.25665H7.29209H7.32757H7.3631H7.39867H7.43429H7.46995H7.50565H7.54139H7.57718H7.61301H7.64887H7.68478H7.72073H7.75671H7.79273H7.82879H7.86489H7.90103H7.9372H7.9734H8.00965H8.04592H8.08223H8.11858H8.15495H8.19136H8.22781H8.26428H8.30078H8.33732H8.37388H8.41047H8.4471H8.48375H8.52043H8.55713H8.59386H8.63062H8.66741H8.70422H8.74105H8.77791H8.81479H8.8517H8.88862H8.92557H8.96254H8.99953H9.03655H9.07358H9.11063H9.1477H9.18479H9.22189H9.25902H9.29616H9.33331H9.37048H9.40767H9.44487H9.48209H9.51932H9.55656H9.59381H9.63108H9.66836H9.70565H9.74295H9.78025H9.81757H9.8549H9.89223H9.92958H9.96693H10.0043H10.0416H10.079H10.1164H10.1538H10.1912H10.2285H10.2659H10.3033H10.3407H10.3781H10.4155H10.4529H10.4903H10.5277H10.5651H10.6025H10.6399H10.6773H10.7146H10.752H10.7894H10.8268H10.8641H10.9015H10.9388H10.9762H11.0135H11.0509H11.0882H11.1255H11.1628H11.2001H11.2374H11.2746H11.3119H11.3491H11.3864H11.4236H11.4608H11.498H11.5352H11.5723H11.6095H11.6466H11.6837H11.7208H11.7579H11.795H11.832H11.869H11.906H11.943H11.9799H12.0169H12.0538H12.0907H12.1275H12.1644H12.2012H12.238H12.2748H12.3115H12.3482H12.3849H12.4216H12.4582H12.4948H12.5314H12.5679H12.6044H12.6409H12.6774H12.7138H12.7502H12.7866H12.8229H12.8592H12.8954H12.9316H12.9678H13.004H13.0401H13.0762H13.1122H13.1482H13.1842H13.2201H13.256H13.2918H13.3276H13.3634H13.3991H13.4347H13.4704H13.506H13.5415H13.577H13.6125H13.6479H13.6832H13.7186H13.7538H13.789H13.8242H13.8593H13.8944H13.9294H13.9644H13.9993H14.0342H14.069H14.1038H14.1385H14.1732H14.2078H14.2424H14.2769H14.3113H14.3457H14.38H14.4143H14.4485H14.4827H14.5168H14.5508H14.5848H14.6187H14.6526H14.6864H14.7201H14.7538H14.7874H14.821H14.8544H14.8879H14.9212H14.9545H14.9877H15.0209H15.054H15.087H15.12H15.1528H15.1857H15.2184H15.2511H15.2837H23.4172H23.4345L23.4518 33.6725C24.2842 33.6451 25.269 33.1789 26.1631 32.612C27.1072 32.0135 28.1282 31.187 29.0688 30.2269C30.8661 28.3922 32.5969 25.8325 32.6018 23.2618C31.2106 27.0493 28.6772 29.8687 25.1423 30.7718C25.1076 30.7944 25.073 30.8166 25.0386 30.8384C24.2079 31.3651 23.6366 31.5592 23.3952 31.5731H15.2837H15.2511H15.2184H15.1857H15.1528H15.12H15.087H15.054H15.0209H14.9877H14.9545H14.9212H14.8879H14.8544H14.821H14.7874H14.7538H14.7201H14.6864H14.6526H14.6187H14.5848H14.5508H14.5168H14.4827H14.4485H14.4143H14.38H14.3457H14.3113H14.2769H14.2424H14.2078H14.1732H14.1385H14.1038H14.069H14.0342H13.9993H13.9644H13.9294H13.8944H13.8593H13.8242H13.789H13.7538H13.7186H13.6832H13.6479H13.6125H13.577H13.5415H13.506H13.4704H13.4347H13.3991H13.3634H13.3276H13.2918H13.256H13.2201H13.1842H13.1482H13.1122H13.0762H13.0401H13.004H12.9678H12.9316H12.8954H12.8592H12.8229H12.7866H12.7502H12.7138H12.6774H12.6409H12.6044H12.5679H12.5314H12.4948H12.4582H12.4216H12.3849H12.3482H12.3115H12.2748H12.238H12.2012H12.1644H12.1275H12.0907H12.0538H12.0169H11.9799H11.943H11.906H11.869H11.832H11.795H11.7579H11.7208H11.6837H11.6466H11.6095H11.5723H11.5352H11.498H11.4608H11.4236H11.3864H11.3491H11.3119H11.2746H11.2374H11.2001H11.1628H11.1255H11.0882H11.0509H11.0135H10.9762H10.9388H10.9015H10.8641H10.8268H10.7894H10.752H10.7146H10.6773H10.6399H10.6025H10.5651H10.5277H10.4903H10.4529H10.4155H10.3781H10.3407H10.3033H10.2659H10.2285H10.1912H10.1538H10.1164H10.079H10.0416H10.0043H9.96693H9.92958H9.89223H9.8549H9.81757H9.78025H9.74295H9.70565H9.66836H9.63108H9.59381H9.55656H9.51932H9.48209H9.44487H9.40767H9.37048H9.33331H9.29616H9.25902H9.22189H9.18479H9.1477H9.11063H9.07358H9.03655H8.99953H8.96254H8.92557H8.88862H8.8517H8.81479H8.77791H8.74105H8.70422H8.66741H8.63062H8.59386H8.55713H8.52043H8.48375H8.4471H8.41047H8.37388H8.33732H8.30078H8.26428H8.22781H8.19136H8.15495H8.11858H8.08223H8.04592H8.00965H7.9734H7.9372H7.90103H7.86489H7.82879H7.79273H7.75671H7.72073H7.68478H7.64887H7.61301H7.57718H7.54139H7.50565H7.46995H7.43429H7.39867H7.3631H7.32757H7.29209H7.25665H7.22126H7.18591H7.15061H7.11536H7.08015H7.045H7.00989H6.97483H6.93982H6.90486H6.86996H6.8351H6.8003H6.76554H6.73085H6.6962H6.66161H6.62708H6.5926H6.55817H6.5238H6.48949H6.45524H6.42104H6.3869H6.35282H6.3188H6.28484H6.25094H6.21711H6.18333H6.14961H6.11596H6.08237H6.04885H6.01538H5.98199H5.94865H5.91539H5.88219H5.84906H5.81599H5.78299H5.75006H5.7172H5.68441H5.65169H5.61904H5.58646H5.55395H5.52151H5.48915H5.45686H5.42464H5.3925H5.36043H5.32844H5.29652H5.26468H5.23291H5.20123H5.16962H5.13809H5.10664H5.07526H5.04397H5.01276H4.98163H4.95058H4.91961H4.88873H4.85793H4.82721H4.79657H4.76603H4.73556H4.70518H4.67489H4.64469H4.61457H4.58454H4.5546H4.52474H4.49498H4.46531H4.43573H4.40623H4.37683H4.34753H4.31831H4.28919H4.26016H4.23123H4.20238H4.17364H4.14499H4.11644H4.08798H4.05963H4.03137H4.0032H3.97514H3.94718H3.91931H3.89155H3.86389H3.83633H3.80887H3.78151H3.75426H3.72711H3.70007H3.67313H3.64629H3.61956H3.59294H3.56643H3.54002H3.51372H3.48753H3.46144H3.43547H3.4096H3.38385H3.35821H3.33268H3.30726H3.28195H3.25676H3.23168H3.20672H3.18187H3.15713H3.13251H3.10801H3.08363H3.05936H3.03521H3.01117H2.98726H2.96347H2.9398H2.91624H2.89281H2.8695H2.84631H2.82325H2.8003H2.77748H2.75479H2.73222H2.70978H2.68746H2.66527H2.6432H2.62126H2.59945H2.57777H2.55622H2.5348H2.5135H2.49234H2.47131H2.45041H2.42964H2.40901H2.3885H2.36814H2.3479H2.3278H2.30784H2.28801H2.26832H2.24876H2.22935H2.21007H2.19093H2.17192H2.15306H2.13434H2.11576H2.1V16.8341H15.2837H16.3337V15.7841V2.10003H30.5007V13.6793H32.6007V1.05003V3.43323e-05H31.5507H15.2837Z" fill="#3F51B5"/>
</svg>
